<svg width="32" height="32" viewBox="0 0 32 32" fill="none" xmlns="http://www.w3.org/2000/svg">
<path d="M24.2929 0.292878C24.6834 -0.0976464 25.3166 -0.0976464 25.7071 0.292878L31.7071 6.29288C32.0977 6.6834 32.0977 7.31657 31.7071 7.70709L11.7071 27.7071C11.6114 27.8029 11.4972 27.8782 11.3714 27.9285L1.37142 31.9285C1 32.077 0.575785 31.99 0.292922 31.7071C0.0100598 31.4242 -0.0770143 31 0.0715525 30.6286L4.07155 20.6286C4.12185 20.5029 4.19716 20.3886 4.29292 20.2929L24.2929 0.292878ZM22.4142 4.99998L27 9.58577L29.5858 6.99998L25 2.4142L22.4142 4.99998ZM25.5858 11L21 6.4142L8.00003 19.4142V20H9.00003C9.55231 20 10 20.4477 10 21V22H11C11.5523 22 12 22.4477 12 23V24H12.5858L25.5858 11ZM6.06333 21.3509L5.85228 21.562L2.79508 29.2049L10.4381 26.1477L10.6491 25.9367C10.2699 25.7946 10 25.4288 10 25V24H9.00003C8.44774 24 8.00003 23.5523 8.00003 23V22H7.00003C6.57122 22 6.20545 21.7301 6.06333 21.3509Z" fill="#00B3FF"/>
</svg>
