<svg width="30" height="30" viewBox="0 0 30 30" fill="none" xmlns="http://www.w3.org/2000/svg">
<path id="Vector" d="M0 30V3.84627H3.75V1.53862C3.75008 0.688897 4.42161 0.000154032 5.25001 0.000154032H8.24997C9.07838 0.000154032 9.74991 0.688897 9.74998 1.53846V3.84627H20.25L20.2499 1.53846C20.2499 0.688743 20.9215 0 21.75 0H24.75C25.5784 0 26.25 0.688743 26.25 1.53846V3.84627H30V30H0ZM2.24998 27.6923H27.7499V10.0001H2.24998V27.6923ZM3.75 22.3077H8.24997V26.1538H3.75V22.3077ZM9.74998 22.3077H14.25V26.1538H9.74998V22.3077ZM15.75 22.3077H20.25V26.1538H15.75V22.3077ZM21.75 22.3077H26.25V26.1538H21.75V22.3077ZM3.75 16.9231H8.24997V20.7692H3.75V16.9231ZM9.74998 16.9231H14.25V20.7692H9.74998V16.9231ZM15.75 16.9231H20.25V20.7692H15.75V16.9231ZM21.75 16.9231H26.25V20.7692H21.75V16.9231ZM9.74998 11.5387H14.25V15.3848H9.74998V11.5387ZM15.75 11.5387H20.25V15.3848H15.75V11.5387ZM21.75 11.5387H26.25V15.3848H21.75V11.5387ZM22.8749 1.53862C22.2537 1.53862 21.75 2.05523 21.75 2.69252V5.00018C21.75 5.63739 22.2537 6.15401 22.8749 6.15401H23.625C24.2463 6.15401 24.75 5.63739 24.75 5.00018V2.69252C24.75 2.05523 24.2463 1.53862 23.625 1.53862H22.8749ZM6.37501 1.53862C5.75364 1.53862 5.25001 2.05523 5.25001 2.69245V5.0001C5.25001 5.63739 5.75364 6.15401 6.37501 6.15401H7.12498C7.74634 6.15401 8.24997 5.63739 8.24997 5.0001V2.69245C8.24997 2.05523 7.74634 1.53862 7.12498 1.53862H6.37501Z" fill="black"/>
</svg>
