<svg width="65" height="64" viewBox="0 0 65 64" fill="none" xmlns="http://www.w3.org/2000/svg">
<path d="M34.5 26C34.5 24.8954 33.6046 24 32.5 24C31.3954 24 30.5 24.8954 30.5 26V41.1716L25.9142 36.5858C25.1332 35.8047 23.8668 35.8047 23.0858 36.5858C22.3047 37.3668 22.3047 38.6332 23.0858 39.4142L31.0858 47.4142C31.8668 48.1953 33.1332 48.1953 33.9142 47.4142L41.9142 39.4142C42.6953 38.6332 42.6953 37.3668 41.9142 36.5858C41.1332 35.8047 39.8668 35.8047 39.0858 36.5858L34.5 41.1716V26Z" fill="#909090"/>
<path d="M56.5 56V18L38.5 0H16.5C12.0817 0 8.5 3.58172 8.5 8V56C8.5 60.4183 12.0817 64 16.5 64H48.5C52.9183 64 56.5 60.4183 56.5 56ZM38.5 12C38.5 15.3137 41.1863 18 44.5 18H52.5V56C52.5 58.2091 50.7091 60 48.5 60H16.5C14.2909 60 12.5 58.2091 12.5 56V8C12.5 5.79086 14.2909 4 16.5 4H38.5V12Z" fill="#909090"/>
</svg>
