<svg width="32" height="32" viewBox="0 0 32 32" fill="none" xmlns="http://www.w3.org/2000/svg">
<path d="M16.0001 9.50842C12.4149 9.50842 9.50854 12.4148 9.50854 15.9999C9.50854 19.5851 12.4149 22.4915 16.0001 22.4915C19.5852 22.4915 22.4916 19.5851 22.4916 15.9999C22.4916 12.4148 19.5852 9.50842 16.0001 9.50842ZM11.5085 15.9999C11.5085 13.5193 13.5195 11.5084 16.0001 11.5084C18.4807 11.5084 20.4916 13.5193 20.4916 15.9999C20.4916 18.4805 18.4807 20.4915 16.0001 20.4915C13.5195 20.4915 11.5085 18.4805 11.5085 15.9999Z" fill="black"/>
<path d="M19.5929 2.68675C18.5371 -0.895585 13.4629 -0.895582 12.4071 2.68675L12.2194 3.32359C11.9049 4.39038 10.6864 4.8951 9.70974 4.3631L9.12671 4.04552C5.84699 2.25905 2.25905 5.847 4.04552 9.12671L4.3631 9.70974C4.8951 10.6864 4.39039 11.9049 3.32358 12.2194L2.68675 12.4071C-0.895585 13.4629 -0.895582 18.5371 2.68675 19.5929L3.32358 19.7806C4.39038 20.0951 4.8951 21.3136 4.3631 22.2903L4.04552 22.8733C2.25906 26.153 5.84699 29.741 9.12671 27.9545L9.70974 27.6369C10.6864 27.1049 11.9049 27.6096 12.2194 28.6764L12.4071 29.3132C13.4629 32.8956 18.5371 32.8956 19.5929 29.3132L19.7806 28.6764C20.0951 27.6096 21.3136 27.1049 22.2903 27.6369L22.8733 27.9545C26.153 29.741 29.7409 26.153 27.9545 22.8733L27.6369 22.2903C27.1049 21.3136 27.6096 20.0951 28.6764 19.7806L29.3132 19.5929C32.8956 18.5371 32.8956 13.4629 29.3132 12.4071L28.6764 12.2194C27.6096 11.9049 27.1049 10.6864 27.6369 9.70974L27.9545 9.12671C29.741 5.84698 26.153 2.25906 22.8733 4.04552L22.2903 4.3631C21.3136 4.8951 20.0951 4.39039 19.7806 3.32359L19.5929 2.68675ZM14.3255 3.2522C14.8176 1.5826 17.1824 1.5826 17.6745 3.2522L17.8622 3.88903C18.5369 6.17799 21.1513 7.26093 23.2469 6.11945L23.83 5.80187C25.3585 4.96926 27.0307 6.64147 26.1981 8.17002L25.8806 8.75306C24.7391 10.8487 25.822 13.4631 28.111 14.1378L28.7478 14.3255C30.4174 14.8176 30.4174 17.1824 28.7478 17.6745L28.111 17.8622C25.822 18.5369 24.7391 21.1513 25.8806 23.2469L26.1981 23.83C27.0307 25.3585 25.3585 27.0307 23.83 26.1981L23.2469 25.8806C21.1513 24.7391 18.5369 25.822 17.8622 28.111L17.6745 28.7478C17.1824 30.4174 14.8176 30.4174 14.3255 28.7478L14.1378 28.111C13.4631 25.822 10.8487 24.7391 8.75305 25.8806L8.17002 26.1981C6.64147 27.0307 4.96926 25.3585 5.80187 23.83L6.11945 23.2469C7.26092 21.1514 6.17799 18.5369 3.88903 17.8622L3.2522 17.6745C1.5826 17.1824 1.5826 14.8176 3.2522 14.3255L3.88903 14.1378C6.17799 13.4631 7.26093 10.8487 6.11945 8.75306L5.80187 8.17003C4.96926 6.64147 6.64147 4.96926 8.17002 5.80187L8.75305 6.11945C10.8486 7.26092 13.4631 6.17799 14.1378 3.88903L14.3255 3.2522Z" fill="black"/>
</svg>
