<svg width="27" height="31" viewBox="0 0 27 31" fill="none" xmlns="http://www.w3.org/2000/svg">
<g clip-path="url(#clip0_386_429)">
<path d="M24.375 12.6875H15.9375V4.25C15.9375 3.21465 15.0979 2.375 14.0625 2.375H12.1875C11.1521 2.375 10.3125 3.21465 10.3125 4.25V12.6875H1.875C0.839648 12.6875 0 13.5271 0 14.5625V16.4375C0 17.4729 0.839648 18.3125 1.875 18.3125H10.3125V26.75C10.3125 27.7854 11.1521 28.625 12.1875 28.625H14.0625C15.0979 28.625 15.9375 27.7854 15.9375 26.75V18.3125H24.375C25.4104 18.3125 26.25 17.4729 26.25 16.4375V14.5625C26.25 13.5271 25.4104 12.6875 24.375 12.6875Z" fill="black"/>
</g>
<defs>
<clipPath id="clip0_386_429">
<rect width="26.25" height="30" fill="white" transform="translate(0 0.5)"/>
</clipPath>
</defs>
</svg>
