<svg width="32" height="32" viewBox="0 0 32 32" fill="none" xmlns="http://www.w3.org/2000/svg">
<path fill-rule="evenodd" clip-rule="evenodd" d="M8.42943 10.916C8.14561 10.916 7.91723 10.6792 7.9449 10.3967C8.3035 6.73673 10.9257 4 15.6481 4C20.1481 4 23.1822 6.72131 23.1822 10.4306C23.1822 13.1173 21.8526 15.0066 19.6026 16.3759C17.4038 17.6932 16.7731 18.6119 16.7731 20.3972V20.9545C16.7731 21.2307 16.5492 21.4545 16.2731 21.4545H13.7386C13.4648 21.4545 13.242 21.2344 13.2386 20.9607L13.2276 20.0679C13.1424 17.6239 14.1822 16.0639 16.5174 14.6426C18.5799 13.3773 19.3129 12.3719 19.3129 10.5866C19.3129 8.62797 17.7958 7.18931 15.4606 7.18931C13.272 7.18931 11.8064 8.43477 11.4895 10.451C11.4487 10.711 11.2334 10.916 10.9703 10.916H8.42943ZM14.9921 28C16.2365 28 17.1822 27.0529 17.1822 25.8182C17.1822 24.5835 16.2365 23.6364 14.9921 23.6364C13.7809 23.6364 12.8186 24.5835 12.8186 25.8182C12.8186 27.0529 13.7809 28 14.9921 28Z" fill="black"/>
</svg>
