<svg width="24" height="24" viewBox="0 0 24 24" fill="none" xmlns="http://www.w3.org/2000/svg">
<path d="M6 16.5H3V21H6V16.5ZM13.5 10.5H10.5V21H13.5V10.5ZM21 3V21H18V3L21 3ZM18 1.5C17.1716 1.5 16.5 2.17157 16.5 3V21C16.5 21.8284 17.1716 22.5 18 22.5H21C21.8284 22.5 22.5 21.8284 22.5 21V3C22.5 2.17157 21.8284 1.5 21 1.5H18ZM9 10.5C9 9.67157 9.67157 9 10.5 9H13.5C14.3284 9 15 9.67157 15 10.5V21C15 21.8284 14.3284 22.5 13.5 22.5H10.5C9.67157 22.5 9 21.8284 9 21V10.5ZM1.5 16.5C1.5 15.6716 2.17157 15 3 15H6C6.82843 15 7.5 15.6716 7.5 16.5V21C7.5 21.8284 6.82843 22.5 6 22.5H3C2.17157 22.5 1.5 21.8284 1.5 21V16.5Z" fill="black"/>
</svg>
